{
    "asset" : {
        "generator" : "Khronos glTF Blender I/O v1.7.33",
        "version" : "2.0"
    },
    "scene" : 0,
    "scenes" : [
        {
            "name" : "Scene",
            "nodes" : [
                0
            ]
        }
    ],
    "nodes" : [
        {
            "mesh" : 0,
            "name" : "Cylinder.004",
            "scale" : [
                0.06020980328321457,
                13.198360443115234,
                0.06020980328321457
            ],
            "translation" : [
                -12.981558799743652,
                3.835538864135742,
                10.860198974609375
            ]
        }
    ],
    "materials" : [
        {
            "doubleSided" : true,
            "name" : "steel.001",
            "pbrMetallicRoughness" : {
                "roughnessFactor" : 0.5
            }
        },
        {
            "doubleSided" : true,
            "name" : "steel",
            "pbrMetallicRoughness" : {
                "baseColorFactor" : [
                    0.22153575718402863,
                    0.22153575718402863,
                    0.22153575718402863,
                    1
                ],
                "roughnessFactor" : 0.5
            }
        },
        {
            "doubleSided" : true,
            "emissiveFactor" : [
                0,
                0.26828497223741365,
                1
            ],
            "name" : "blue light",
            "pbrMetallicRoughness" : {}
        },
        {
            "doubleSided" : true,
            "name" : "steel brushed",
            "pbrMetallicRoughness" : {
                "baseColorFactor" : [
                    0.43364766240119934,
                    0.43364766240119934,
                    0.43364766240119934,
                    1
                ],
                "roughnessFactor" : 0.5
            }
        },
        {
            "doubleSided" : true,
            "name" : "steel.002",
            "pbrMetallicRoughness" : {
                "baseColorFactor" : [
                    0.0756419375538826,
                    0.0756419375538826,
                    0.0756419375538826,
                    1
                ],
                "roughnessFactor" : 0.5
            }
        },
        {
            "doubleSided" : true,
            "emissiveFactor" : [
                1,
                1,
                1
            ],
            "emissiveTexture" : {
                "index" : 0
            },
            "name" : "screen",
            "pbrMetallicRoughness" : {}
        },
        {
            "doubleSided" : true,
            "emissiveFactor" : [
                1,
                1,
                1
            ],
            "name" : "light",
            "pbrMetallicRoughness" : {}
        },
        {
            "doubleSided" : true,
            "name" : "red",
            "pbrMetallicRoughness" : {
                "baseColorFactor" : [
                    0.32989177107810974,
                    0.009857526049017906,
                    0.006775380577892065,
                    1
                ],
                "metallicFactor" : 0,
                "roughnessFactor" : 0.5
            }
        },
        {
            "doubleSided" : true,
            "emissiveFactor" : [
                1,
                0,
                0.014959844993427396
            ],
            "name" : "Material.005",
            "pbrMetallicRoughness" : {}
        },
        {
            "doubleSided" : true,
            "name" : "bg",
            "pbrMetallicRoughness" : {
                "baseColorFactor" : [
                    0,
                    0.20187045633792877,
                    0.15514278411865234,
                    1
                ],
                "metallicFactor" : 0,
                "roughnessFactor" : 0.5
            }
        },
        {
            "doubleSided" : true,
            "emissiveFactor" : [
                0,
                0.7651529740542173,
                1
            ],
            "name" : "blue light.001",
            "pbrMetallicRoughness" : {}
        },
        {
            "doubleSided" : true,
            "emissiveFactor" : [
                1,
                1,
                1
            ],
            "name" : "Material.001",
            "pbrMetallicRoughness" : {}
        }
    ],
    "meshes" : [
        {
            "name" : "Cylinder.004",
            "primitives" : [
                {
                    "attributes" : {
                        "POSITION" : 0,
                        "NORMAL" : 1,
                        "TEXCOORD_0" : 2
                    },
                    "indices" : 3,
                    "material" : 0
                },
                {
                    "attributes" : {
                        "POSITION" : 4,
                        "NORMAL" : 5,
                        "TEXCOORD_0" : 6
                    },
                    "indices" : 7,
                    "material" : 1
                },
                {
                    "attributes" : {
                        "POSITION" : 8,
                        "NORMAL" : 9,
                        "TEXCOORD_0" : 10
                    },
                    "indices" : 11,
                    "material" : 2
                },
                {
                    "attributes" : {
                        "POSITION" : 12,
                        "NORMAL" : 13,
                        "TEXCOORD_0" : 14
                    },
                    "indices" : 15,
                    "material" : 3
                },
                {
                    "attributes" : {
                        "POSITION" : 16,
                        "NORMAL" : 17,
                        "TEXCOORD_0" : 18
                    },
                    "indices" : 19,
                    "material" : 4
                },
                {
                    "attributes" : {
                        "POSITION" : 20,
                        "NORMAL" : 21,
                        "TEXCOORD_0" : 22
                    },
                    "indices" : 23,
                    "material" : 5
                },
                {
                    "attributes" : {
                        "POSITION" : 24,
                        "NORMAL" : 25,
                        "TEXCOORD_0" : 26
                    },
                    "indices" : 27,
                    "material" : 6
                },
                {
                    "attributes" : {
                        "POSITION" : 28,
                        "NORMAL" : 29,
                        "TEXCOORD_0" : 30
                    },
                    "indices" : 31,
                    "material" : 7
                },
                {
                    "attributes" : {
                        "POSITION" : 32,
                        "NORMAL" : 33,
                        "TEXCOORD_0" : 34
                    },
                    "indices" : 35,
                    "material" : 8
                },
                {
                    "attributes" : {
                        "POSITION" : 36,
                        "NORMAL" : 37,
                        "TEXCOORD_0" : 38
                    },
                    "indices" : 39,
                    "material" : 9
                },
                {
                    "attributes" : {
                        "POSITION" : 40,
                        "NORMAL" : 41,
                        "TEXCOORD_0" : 42
                    },
                    "indices" : 43,
                    "material" : 10
                },
                {
                    "attributes" : {
                        "POSITION" : 44,
                        "NORMAL" : 45,
                        "TEXCOORD_0" : 46
                    },
                    "indices" : 47,
                    "material" : 11
                }
            ]
        }
    ],
    "textures" : [
        {
            "sampler" : 0,
            "source" : 0
        }
    ],
    "images" : [
        {
            "mimeType" : "image/jpeg",
            "name" : "18dd89478cfb73a3fbf1985ddceca4c939642edbr1-1200-843v2_uhq",
            "uri" : "18dd89478cfb73a3fbf1985ddceca4c939642edbr1-1200-843v2_uhq.jpg"
        }
    ],
    "accessors" : [
        {
            "bufferView" : 0,
            "componentType" : 5126,
            "count" : 576,
            "max" : [
                1.0000152587890625,
                1,
                9.254623413085938
            ],
            "min" : [
                -1,
                -0.21485668420791626,
                -1
            ],
            "type" : "VEC3"
        },
        {
            "bufferView" : 1,
            "componentType" : 5126,
            "count" : 576,
            "type" : "VEC3"
        },
        {
            "bufferView" : 2,
            "componentType" : 5126,
            "count" : 576,
            "type" : "VEC2"
        },
        {
            "bufferView" : 3,
            "componentType" : 5123,
            "count" : 1116,
            "type" : "SCALAR"
        },
        {
            "bufferView" : 4,
            "componentType" : 5126,
            "count" : 3068,
            "max" : [
                430.2645263671875,
                1.2182328701019287,
                20.964736938476562
            ],
            "min" : [
                0.4798418879508972,
                -0.2484361231327057,
                -428.4635009765625
            ],
            "type" : "VEC3"
        },
        {
            "bufferView" : 5,
            "componentType" : 5126,
            "count" : 3068,
            "type" : "VEC3"
        },
        {
            "bufferView" : 6,
            "componentType" : 5126,
            "count" : 3068,
            "type" : "VEC2"
        },
        {
            "bufferView" : 7,
            "componentType" : 5123,
            "count" : 4920,
            "type" : "SCALAR"
        },
        {
            "bufferView" : 8,
            "componentType" : 5126,
            "count" : 380,
            "max" : [
                428.3416748046875,
                0.5893986225128174,
                4.124359130859375
            ],
            "min" : [
                2.8669281005859375,
                0.03461533784866333,
                -400.5284118652344
            ],
            "type" : "VEC3"
        },
        {
            "bufferView" : 9,
            "componentType" : 5126,
            "count" : 380,
            "type" : "VEC3"
        },
        {
            "bufferView" : 10,
            "componentType" : 5126,
            "count" : 380,
            "type" : "VEC2"
        },
        {
            "bufferView" : 11,
            "componentType" : 5123,
            "count" : 570,
            "type" : "SCALAR"
        },
        {
            "bufferView" : 12,
            "componentType" : 5126,
            "count" : 1244,
            "max" : [
                409.4898376464844,
                0.6688344478607178,
                -102.34127807617188
            ],
            "min" : [
                3.286834716796875,
                0.08971396088600159,
                -372.1398620605469
            ],
            "type" : "VEC3"
        },
        {
            "bufferView" : 13,
            "componentType" : 5126,
            "count" : 1244,
            "type" : "VEC3"
        },
        {
            "bufferView" : 14,
            "componentType" : 5126,
            "count" : 1244,
            "type" : "VEC2"
        },
        {
            "bufferView" : 15,
            "componentType" : 5123,
            "count" : 1956,
            "type" : "SCALAR"
        },
        {
            "bufferView" : 16,
            "componentType" : 5126,
            "count" : 10177,
            "max" : [
                430.5450439453125,
                1.217139720916748,
                51.26176452636719
            ],
            "min" : [
                -16.945404052734375,
                -0.6593284606933594,
                -422.7765808105469
            ],
            "type" : "VEC3"
        },
        {
            "bufferView" : 17,
            "componentType" : 5126,
            "count" : 10177,
            "type" : "VEC3"
        },
        {
            "bufferView" : 18,
            "componentType" : 5126,
            "count" : 10177,
            "type" : "VEC2"
        },
        {
            "bufferView" : 19,
            "componentType" : 5123,
            "count" : 15624,
            "type" : "SCALAR"
        },
        {
            "bufferView" : 20,
            "componentType" : 5126,
            "count" : 8,
            "max" : [
                2.642852783203125,
                1.0306203365325928,
                -135.0538330078125
            ],
            "min" : [
                2.642852783203125,
                0.5719810724258423,
                -323.9209899902344
            ],
            "type" : "VEC3"
        },
        {
            "bufferView" : 21,
            "componentType" : 5126,
            "count" : 8,
            "type" : "VEC3"
        },
        {
            "bufferView" : 22,
            "componentType" : 5126,
            "count" : 8,
            "type" : "VEC2"
        },
        {
            "bufferView" : 23,
            "componentType" : 5123,
            "count" : 12,
            "type" : "SCALAR"
        },
        {
            "bufferView" : 24,
            "componentType" : 5126,
            "count" : 32,
            "max" : [
                29.27630615234375,
                0.4700535237789154,
                -128.97161865234375
            ],
            "min" : [
                16.687408447265625,
                0.41074150800704956,
                -326.6977844238281
            ],
            "type" : "VEC3"
        },
        {
            "bufferView" : 25,
            "componentType" : 5126,
            "count" : 32,
            "type" : "VEC3"
        },
        {
            "bufferView" : 26,
            "componentType" : 5126,
            "count" : 32,
            "type" : "VEC2"
        },
        {
            "bufferView" : 27,
            "componentType" : 5123,
            "count" : 48,
            "type" : "SCALAR"
        },
        {
            "bufferView" : 28,
            "componentType" : 5126,
            "count" : 64,
            "max" : [
                236.9429473876953,
                0.5304580926895142,
                -313.9484558105469
            ],
            "min" : [
                194.3252716064453,
                0.23526212573051453,
                -364.1088562011719
            ],
            "type" : "VEC3"
        },
        {
            "bufferView" : 29,
            "componentType" : 5126,
            "count" : 64,
            "type" : "VEC3"
        },
        {
            "bufferView" : 30,
            "componentType" : 5126,
            "count" : 64,
            "type" : "VEC2"
        },
        {
            "bufferView" : 31,
            "componentType" : 5123,
            "count" : 96,
            "type" : "SCALAR"
        },
        {
            "bufferView" : 32,
            "componentType" : 5126,
            "count" : 104,
            "max" : [
                247.17733764648438,
                0.271745890378952,
                -301.20684814453125
            ],
            "min" : [
                181.40008544921875,
                0.25905436277389526,
                -315.23785400390625
            ],
            "type" : "VEC3"
        },
        {
            "bufferView" : 33,
            "componentType" : 5126,
            "count" : 104,
            "type" : "VEC3"
        },
        {
            "bufferView" : 34,
            "componentType" : 5126,
            "count" : 104,
            "type" : "VEC2"
        },
        {
            "bufferView" : 35,
            "componentType" : 5123,
            "count" : 156,
            "type" : "SCALAR"
        },
        {
            "bufferView" : 36,
            "componentType" : 5126,
            "count" : 16,
            "max" : [
                684.5925903320312,
                -0.180088609457016,
                289.271728515625
            ],
            "min" : [
                -254.7928924560547,
                -0.180088609457016,
                -650.11376953125
            ],
            "type" : "VEC3"
        },
        {
            "bufferView" : 37,
            "componentType" : 5126,
            "count" : 16,
            "type" : "VEC3"
        },
        {
            "bufferView" : 38,
            "componentType" : 5126,
            "count" : 16,
            "type" : "VEC2"
        },
        {
            "bufferView" : 39,
            "componentType" : 5123,
            "count" : 24,
            "type" : "SCALAR"
        },
        {
            "bufferView" : 40,
            "componentType" : 5126,
            "count" : 4,
            "max" : [
                2.1426186561584473,
                1.0836879014968872,
                11.915074348449707
            ],
            "min" : [
                2.142617702484131,
                1.0147215127944946,
                -3.202794075012207
            ],
            "type" : "VEC3"
        },
        {
            "bufferView" : 41,
            "componentType" : 5126,
            "count" : 4,
            "type" : "VEC3"
        },
        {
            "bufferView" : 42,
            "componentType" : 5126,
            "count" : 4,
            "type" : "VEC2"
        },
        {
            "bufferView" : 43,
            "componentType" : 5123,
            "count" : 6,
            "type" : "SCALAR"
        },
        {
            "bufferView" : 44,
            "componentType" : 5126,
            "count" : 1392,
            "max" : [
                348.630615234375,
                0.4936145842075348,
                -55.18864440917969
            ],
            "min" : [
                241.65203857421875,
                0.24680589139461517,
                -310.4742431640625
            ],
            "type" : "VEC3"
        },
        {
            "bufferView" : 45,
            "componentType" : 5126,
            "count" : 1392,
            "type" : "VEC3"
        },
        {
            "bufferView" : 46,
            "componentType" : 5126,
            "count" : 1392,
            "type" : "VEC2"
        },
        {
            "bufferView" : 47,
            "componentType" : 5123,
            "count" : 2148,
            "type" : "SCALAR"
        }
    ],
    "bufferViews" : [
        {
            "buffer" : 0,
            "byteLength" : 6912,
            "byteOffset" : 0
        },
        {
            "buffer" : 0,
            "byteLength" : 6912,
            "byteOffset" : 6912
        },
        {
            "buffer" : 0,
            "byteLength" : 4608,
            "byteOffset" : 13824
        },
        {
            "buffer" : 0,
            "byteLength" : 2232,
            "byteOffset" : 18432
        },
        {
            "buffer" : 0,
            "byteLength" : 36816,
            "byteOffset" : 20664
        },
        {
            "buffer" : 0,
            "byteLength" : 36816,
            "byteOffset" : 57480
        },
        {
            "buffer" : 0,
            "byteLength" : 24544,
            "byteOffset" : 94296
        },
        {
            "buffer" : 0,
            "byteLength" : 9840,
            "byteOffset" : 118840
        },
        {
            "buffer" : 0,
            "byteLength" : 4560,
            "byteOffset" : 128680
        },
        {
            "buffer" : 0,
            "byteLength" : 4560,
            "byteOffset" : 133240
        },
        {
            "buffer" : 0,
            "byteLength" : 3040,
            "byteOffset" : 137800
        },
        {
            "buffer" : 0,
            "byteLength" : 1140,
            "byteOffset" : 140840
        },
        {
            "buffer" : 0,
            "byteLength" : 14928,
            "byteOffset" : 141980
        },
        {
            "buffer" : 0,
            "byteLength" : 14928,
            "byteOffset" : 156908
        },
        {
            "buffer" : 0,
            "byteLength" : 9952,
            "byteOffset" : 171836
        },
        {
            "buffer" : 0,
            "byteLength" : 3912,
            "byteOffset" : 181788
        },
        {
            "buffer" : 0,
            "byteLength" : 122124,
            "byteOffset" : 185700
        },
        {
            "buffer" : 0,
            "byteLength" : 122124,
            "byteOffset" : 307824
        },
        {
            "buffer" : 0,
            "byteLength" : 81416,
            "byteOffset" : 429948
        },
        {
            "buffer" : 0,
            "byteLength" : 31248,
            "byteOffset" : 511364
        },
        {
            "buffer" : 0,
            "byteLength" : 96,
            "byteOffset" : 542612
        },
        {
            "buffer" : 0,
            "byteLength" : 96,
            "byteOffset" : 542708
        },
        {
            "buffer" : 0,
            "byteLength" : 64,
            "byteOffset" : 542804
        },
        {
            "buffer" : 0,
            "byteLength" : 24,
            "byteOffset" : 542868
        },
        {
            "buffer" : 0,
            "byteLength" : 384,
            "byteOffset" : 542892
        },
        {
            "buffer" : 0,
            "byteLength" : 384,
            "byteOffset" : 543276
        },
        {
            "buffer" : 0,
            "byteLength" : 256,
            "byteOffset" : 543660
        },
        {
            "buffer" : 0,
            "byteLength" : 96,
            "byteOffset" : 543916
        },
        {
            "buffer" : 0,
            "byteLength" : 768,
            "byteOffset" : 544012
        },
        {
            "buffer" : 0,
            "byteLength" : 768,
            "byteOffset" : 544780
        },
        {
            "buffer" : 0,
            "byteLength" : 512,
            "byteOffset" : 545548
        },
        {
            "buffer" : 0,
            "byteLength" : 192,
            "byteOffset" : 546060
        },
        {
            "buffer" : 0,
            "byteLength" : 1248,
            "byteOffset" : 546252
        },
        {
            "buffer" : 0,
            "byteLength" : 1248,
            "byteOffset" : 547500
        },
        {
            "buffer" : 0,
            "byteLength" : 832,
            "byteOffset" : 548748
        },
        {
            "buffer" : 0,
            "byteLength" : 312,
            "byteOffset" : 549580
        },
        {
            "buffer" : 0,
            "byteLength" : 192,
            "byteOffset" : 549892
        },
        {
            "buffer" : 0,
            "byteLength" : 192,
            "byteOffset" : 550084
        },
        {
            "buffer" : 0,
            "byteLength" : 128,
            "byteOffset" : 550276
        },
        {
            "buffer" : 0,
            "byteLength" : 48,
            "byteOffset" : 550404
        },
        {
            "buffer" : 0,
            "byteLength" : 48,
            "byteOffset" : 550452
        },
        {
            "buffer" : 0,
            "byteLength" : 48,
            "byteOffset" : 550500
        },
        {
            "buffer" : 0,
            "byteLength" : 32,
            "byteOffset" : 550548
        },
        {
            "buffer" : 0,
            "byteLength" : 12,
            "byteOffset" : 550580
        },
        {
            "buffer" : 0,
            "byteLength" : 16704,
            "byteOffset" : 550592
        },
        {
            "buffer" : 0,
            "byteLength" : 16704,
            "byteOffset" : 567296
        },
        {
            "buffer" : 0,
            "byteLength" : 11136,
            "byteOffset" : 584000
        },
        {
            "buffer" : 0,
            "byteLength" : 4296,
            "byteOffset" : 595136
        }
    ],
    "samplers" : [
        {
            "magFilter" : 9729,
            "minFilter" : 9987
        }
    ],
    "buffers" : [
        {
            "byteLength" : 599432,
            "uri" : "imperial.bin"
        }
    ]
}
