{
    "asset" : {
        "generator" : "Khronos glTF Blender I/O v1.7.33",
        "version" : "2.0"
    },
    "scene" : 0,
    "scenes" : [
        {
            "name" : "Scene",
            "nodes" : [
                1
            ]
        }
    ],
    "nodes" : [
        {
            "mesh" : 0,
            "name" : "Cube.001"
        },
        {
            "children" : [
                0
            ],
            "mesh" : 1,
            "name" : "Cube",
            "scale" : [
                4,
                4,
                4
            ],
            "translation" : [
                0,
                4,
                0
            ]
        }
    ],
    "materials" : [
        {
            "doubleSided" : true,
            "name" : "Material.002",
            "pbrMetallicRoughness" : {
                "baseColorFactor" : [
                    0.8000000715255737,
                    0.0375654473900795,
                    0.02389179915189743,
                    1
                ],
                "metallicFactor" : 0,
                "roughnessFactor" : 0.5
            }
        },
        {
            "doubleSided" : true,
            "name" : "Material.001",
            "pbrMetallicRoughness" : {
                "baseColorFactor" : [
                    0.2954612970352173,
                    0.14407163858413696,
                    0.8000000715255737,
                    1
                ],
                "metallicFactor" : 0,
                "roughnessFactor" : 0.5
            }
        }
    ],
    "meshes" : [
        {
            "name" : "Cube.001",
            "primitives" : [
                {
                    "attributes" : {
                        "POSITION" : 0,
                        "NORMAL" : 1,
                        "TEXCOORD_0" : 2
                    },
                    "indices" : 3,
                    "material" : 0
                }
            ]
        },
        {
            "name" : "Cube",
            "primitives" : [
                {
                    "attributes" : {
                        "POSITION" : 4,
                        "NORMAL" : 5,
                        "TEXCOORD_0" : 6
                    },
                    "indices" : 7,
                    "material" : 1
                }
            ]
        }
    ],
    "accessors" : [
        {
            "bufferView" : 0,
            "componentType" : 5126,
            "count" : 2924,
            "max" : [
                1.100000023841858,
                -0.9469622373580933,
                1
            ],
            "min" : [
                -1,
                -1,
                -0.9999999403953552
            ],
            "type" : "VEC3"
        },
        {
            "bufferView" : 1,
            "componentType" : 5126,
            "count" : 2924,
            "type" : "VEC3"
        },
        {
            "bufferView" : 2,
            "componentType" : 5126,
            "count" : 2924,
            "type" : "VEC2"
        },
        {
            "bufferView" : 3,
            "componentType" : 5123,
            "count" : 10152,
            "type" : "SCALAR"
        },
        {
            "bufferView" : 4,
            "componentType" : 5126,
            "count" : 132,
            "max" : [
                1.100000023841858,
                1,
                1
            ],
            "min" : [
                -1,
                -1.100000023841858,
                -1.100000023841858
            ],
            "type" : "VEC3"
        },
        {
            "bufferView" : 5,
            "componentType" : 5126,
            "count" : 132,
            "type" : "VEC3"
        },
        {
            "bufferView" : 6,
            "componentType" : 5126,
            "count" : 132,
            "type" : "VEC2"
        },
        {
            "bufferView" : 7,
            "componentType" : 5123,
            "count" : 294,
            "type" : "SCALAR"
        }
    ],
    "bufferViews" : [
        {
            "buffer" : 0,
            "byteLength" : 35088,
            "byteOffset" : 0
        },
        {
            "buffer" : 0,
            "byteLength" : 35088,
            "byteOffset" : 35088
        },
        {
            "buffer" : 0,
            "byteLength" : 23392,
            "byteOffset" : 70176
        },
        {
            "buffer" : 0,
            "byteLength" : 20304,
            "byteOffset" : 93568
        },
        {
            "buffer" : 0,
            "byteLength" : 1584,
            "byteOffset" : 113872
        },
        {
            "buffer" : 0,
            "byteLength" : 1584,
            "byteOffset" : 115456
        },
        {
            "buffer" : 0,
            "byteLength" : 1056,
            "byteOffset" : 117040
        },
        {
            "buffer" : 0,
            "byteLength" : 588,
            "byteOffset" : 118096
        }
    ],
    "buffers" : [
        {
            "byteLength" : 118684,
            "uri" : "room.bin"
        }
    ]
}
