{
    "asset" : {
        "generator" : "Khronos glTF Blender I/O v1.7.33",
        "version" : "2.0"
    },
    "scene" : 0,
    "scenes" : [
        {
            "name" : "Scene",
            "nodes" : [
                1
            ]
        }
    ],
    "nodes" : [
        {
            "mesh" : 0,
            "name" : "Plane.004",
            "translation" : [
                -0.7490029335021973,
                -3.971122980117798,
                -2.415919303894043
            ]
        },
        {
            "children" : [
                0
            ],
            "mesh" : 1,
            "name" : "Cube",
            "scale" : [
                4,
                4,
                4
            ],
            "translation" : [
                0,
                4,
                0
            ]
        }
    ],
    "meshes" : [
        {
            "name" : "Plane.004",
            "primitives" : [
                {
                    "attributes" : {
                        "POSITION" : 0,
                        "NORMAL" : 1,
                        "TEXCOORD_0" : 2
                    },
                    "indices" : 3
                }
            ]
        },
        {
            "name" : "Cube",
            "primitives" : [
                {
                    "attributes" : {
                        "POSITION" : 4,
                        "NORMAL" : 5,
                        "TEXCOORD_0" : 6
                    },
                    "indices" : 7
                }
            ]
        }
    ],
    "accessors" : [
        {
            "bufferView" : 0,
            "componentType" : 5126,
            "count" : 6353,
            "max" : [
                5.149003028869629,
                2.672478199005127,
                6.415919303894043
            ],
            "min" : [
                -3.2509970664978027,
                -0.02887701988220215,
                -1.584080457687378
            ],
            "type" : "VEC3"
        },
        {
            "bufferView" : 1,
            "componentType" : 5126,
            "count" : 6353,
            "type" : "VEC3"
        },
        {
            "bufferView" : 2,
            "componentType" : 5126,
            "count" : 6353,
            "type" : "VEC2"
        },
        {
            "bufferView" : 3,
            "componentType" : 5123,
            "count" : 21996,
            "type" : "SCALAR"
        },
        {
            "bufferView" : 4,
            "componentType" : 5126,
            "count" : 132,
            "max" : [
                1.100000023841858,
                1,
                1
            ],
            "min" : [
                -1,
                -1.100000023841858,
                -1.100000023841858
            ],
            "type" : "VEC3"
        },
        {
            "bufferView" : 5,
            "componentType" : 5126,
            "count" : 132,
            "type" : "VEC3"
        },
        {
            "bufferView" : 6,
            "componentType" : 5126,
            "count" : 132,
            "type" : "VEC2"
        },
        {
            "bufferView" : 7,
            "componentType" : 5123,
            "count" : 294,
            "type" : "SCALAR"
        }
    ],
    "bufferViews" : [
        {
            "buffer" : 0,
            "byteLength" : 76236,
            "byteOffset" : 0
        },
        {
            "buffer" : 0,
            "byteLength" : 76236,
            "byteOffset" : 76236
        },
        {
            "buffer" : 0,
            "byteLength" : 50824,
            "byteOffset" : 152472
        },
        {
            "buffer" : 0,
            "byteLength" : 43992,
            "byteOffset" : 203296
        },
        {
            "buffer" : 0,
            "byteLength" : 1584,
            "byteOffset" : 247288
        },
        {
            "buffer" : 0,
            "byteLength" : 1584,
            "byteOffset" : 248872
        },
        {
            "buffer" : 0,
            "byteLength" : 1056,
            "byteOffset" : 250456
        },
        {
            "buffer" : 0,
            "byteLength" : 588,
            "byteOffset" : 251512
        }
    ],
    "buffers" : [
        {
            "byteLength" : 252100,
            "uri" : "asd.bin"
        }
    ]
}
