{
    "asset" : {
        "generator" : "Khronos glTF Blender I/O v1.7.33",
        "version" : "2.0"
    },
    "scene" : 0,
    "scenes" : [
        {
            "name" : "Scene",
            "nodes" : [
                1
            ]
        }
    ],
    "nodes" : [
        {
            "mesh" : 0,
            "name" : "Plane.005"
        },
        {
            "children" : [
                0
            ],
            "mesh" : 1,
            "name" : "Cube",
            "scale" : [
                4,
                4,
                4
            ]
        }
    ],
    "meshes" : [
        {
            "name" : "Plane.005",
            "primitives" : [
                {
                    "attributes" : {
                        "POSITION" : 0,
                        "NORMAL" : 1,
                        "TEXCOORD_0" : 2
                    },
                    "indices" : 3
                }
            ]
        },
        {
            "name" : "Cube",
            "primitives" : [
                {
                    "attributes" : {
                        "POSITION" : 4,
                        "NORMAL" : 5,
                        "TEXCOORD_0" : 6
                    },
                    "indices" : 7
                }
            ]
        }
    ],
    "accessors" : [
        {
            "bufferView" : 0,
            "componentType" : 5126,
            "count" : 6352,
            "max" : [
                1.100000023841858,
                0.6798740029335022,
                1
            ],
            "min" : [
                -1,
                0,
                -0.9999998807907104
            ],
            "type" : "VEC3"
        },
        {
            "bufferView" : 1,
            "componentType" : 5126,
            "count" : 6352,
            "type" : "VEC3"
        },
        {
            "bufferView" : 2,
            "componentType" : 5126,
            "count" : 6352,
            "type" : "VEC2"
        },
        {
            "bufferView" : 3,
            "componentType" : 5123,
            "count" : 21996,
            "type" : "SCALAR"
        },
        {
            "bufferView" : 4,
            "componentType" : 5126,
            "count" : 126,
            "max" : [
                1.100000023841858,
                2,
                1
            ],
            "min" : [
                -1,
                -0.10000002384185791,
                -1.100000023841858
            ],
            "type" : "VEC3"
        },
        {
            "bufferView" : 5,
            "componentType" : 5126,
            "count" : 126,
            "type" : "VEC3"
        },
        {
            "bufferView" : 6,
            "componentType" : 5126,
            "count" : 126,
            "type" : "VEC2"
        },
        {
            "bufferView" : 7,
            "componentType" : 5123,
            "count" : 270,
            "type" : "SCALAR"
        }
    ],
    "bufferViews" : [
        {
            "buffer" : 0,
            "byteLength" : 76224,
            "byteOffset" : 0
        },
        {
            "buffer" : 0,
            "byteLength" : 76224,
            "byteOffset" : 76224
        },
        {
            "buffer" : 0,
            "byteLength" : 50816,
            "byteOffset" : 152448
        },
        {
            "buffer" : 0,
            "byteLength" : 43992,
            "byteOffset" : 203264
        },
        {
            "buffer" : 0,
            "byteLength" : 1512,
            "byteOffset" : 247256
        },
        {
            "buffer" : 0,
            "byteLength" : 1512,
            "byteOffset" : 248768
        },
        {
            "buffer" : 0,
            "byteLength" : 1008,
            "byteOffset" : 250280
        },
        {
            "buffer" : 0,
            "byteLength" : 540,
            "byteOffset" : 251288
        }
    ],
    "buffers" : [
        {
            "byteLength" : 251828,
            "uri" : "asdasd.bin"
        }
    ]
}
